<?xml version="1.0" standalone="no"?>
<!DOCTYPE svg PUBLIC "-//W3C//DTD SVG 20010904//EN"
 "http://www.w3.org/TR/2001/REC-SVG-20010904/DTD/svg10.dtd">
<svg version="1.0" xmlns="http://www.w3.org/2000/svg"
 width="512.000000pt" height="512.000000pt" viewBox="0 0 512.000000 512.000000"
 preserveAspectRatio="xMidYMid meet">

<g transform="translate(0.000000,512.000000) scale(0.100000,-0.100000)"
fill="#000000" stroke="none">
<path d="M20 4880 c-20 -20 -20 -33 -20 -2005 0 -1972 0 -1985 20 -2005 20
-20 33 -20 1470 -20 1437 0 1450 0 1470 20 18 18 20 33 20 163 l0 142 88 3
c227 7 456 88 638 226 l72 53 183 -183 184 -184 -47 -47 c-54 -57 -70 -85 -62
-110 4 -10 162 -174 353 -366 303 -304 350 -347 376 -347 26 0 54 23 193 163
120 121 162 170 162 188 0 18 -84 107 -353 376 -288 288 -357 353 -379 353
-19 0 -45 -17 -86 -54 l-58 -55 -184 184 -183 183 45 58 c379 496 294 1198
-192 1587 -189 151 -454 247 -682 247 l-68 0 0 705 c0 692 0 705 -20 725 -20
20 -33 20 -1470 20 -1437 0 -1450 0 -1470 -20z m2828 -777 l-3 -667 -61 -12
c-339 -69 -642 -312 -795 -639 -66 -140 -91 -254 -96 -435 -4 -132 -2 -171 17
-260 28 -139 75 -260 141 -365 166 -266 397 -437 694 -513 l105 -27 0 -102 0
-103 -1360 0 -1360 0 0 1895 0 1895 1360 0 1360 0 -2 -667z m421 -819 c409
-102 706 -448 752 -877 50 -458 -249 -909 -696 -1050 -230 -72 -484 -59 -705
36 -271 117 -492 374 -570 662 -33 120 -38 320 -12 445 41 198 128 365 266
508 131 137 262 218 433 267 172 50 356 54 532 9z m1166 -2196 l50 -53 -50 47
-51 48 -89 -90 -89 -90 44 -47 45 -48 -50 47 -50 48 95 95 c52 52 95 95 95 95
0 0 23 -24 50 -52z m330 -330 l190 -193 -190 188 -190 187 -90 -90 -90 -90
190 -193 190 -192 -195 192 -195 193 95 95 c52 52 95 95 95 95 0 0 86 -87 190
-192z"/>
<path d="M849 4359 c-24 -24 -20 -75 8 -96 13 -10 156 -13 635 -13 605 0 618
0 638 20 26 26 26 64 0 90 -20 20 -33 20 -640 20 -617 0 -620 0 -641 -21z"/>
<path d="M410 3940 c-11 -11 -20 -31 -20 -45 0 -14 9 -34 20 -45 20 -20 33
-20 1080 -20 1047 0 1060 0 1080 20 26 26 26 64 0 90 -20 20 -33 20 -1080 20
-1047 0 -1060 0 -1080 -20z"/>
<path d="M415 3515 c-29 -28 -31 -51 -9 -83 l15 -22 1069 0 1069 0 15 22 c22
32 20 55 -9 83 l-24 25 -1051 0 -1051 0 -24 -25z"/>
<path d="M430 3107 c-64 -33 -44 -111 32 -122 24 -3 307 -5 629 -3 561 3 588
4 608 22 27 24 27 68 0 92 -20 18 -47 19 -633 21 -478 2 -616 0 -636 -10z"/>
<path d="M406 2668 c-23 -33 -19 -64 10 -87 26 -21 35 -21 645 -21 606 0 619
0 639 20 24 24 26 57 4 88 l-15 22 -634 0 -634 0 -15 -22z"/>
<path d="M410 2250 c-11 -11 -20 -31 -20 -45 0 -14 9 -34 20 -45 20 -20 33
-20 645 -20 612 0 625 0 645 20 26 26 26 64 0 90 -20 20 -33 20 -645 20 -612
0 -625 0 -645 -20z"/>
<path d="M410 1830 c-19 -19 -20 -33 -20 -253 0 -194 3 -236 16 -255 l15 -22
519 0 c458 0 520 2 534 16 14 13 16 51 16 259 0 241 0 244 -22 259 -20 14 -87
16 -530 16 -495 0 -509 -1 -528 -20z m950 -255 l0 -145 -420 0 -420 0 0 138
c0 76 3 142 7 145 3 4 192 7 420 7 l413 0 0 -145z"/>
<path d="M3170 2395 l-365 -365 -145 145 c-80 80 -155 148 -167 151 -51 13
-94 -45 -69 -94 8 -15 90 -102 183 -194 142 -141 174 -168 199 -168 25 0 84
55 427 398 429 429 427 427 371 471 -15 12 -36 21 -47 21 -14 0 -143 -122
-387 -365z"/>
</g>
</svg>
