<?xml version="1.0" standalone="no"?>
<!DOCTYPE svg PUBLIC "-//W3C//DTD SVG 20010904//EN"
 "http://www.w3.org/TR/2001/REC-SVG-20010904/DTD/svg10.dtd">
<svg version="1.0" xmlns="http://www.w3.org/2000/svg"
 width="512.000000pt" height="512.000000pt" viewBox="0 0 512.000000 512.000000"
 preserveAspectRatio="xMidYMid meet">

<g transform="translate(0.000000,512.000000) scale(0.100000,-0.100000)"
fill="#000000" stroke="none">
<path d="M1691 4425 c-53 -17 -97 -56 -122 -110 -18 -38 -19 -107 -19 -1755 0
-1637 1 -1717 19 -1755 26 -58 80 -101 143 -115 39 -8 392 -10 1303 -8 l1250
3 45 25 c49 28 84 73 100 129 6 23 10 557 10 1521 l0 1485 -298 297 -297 298
-1045 -1 c-853 0 -1053 -3 -1089 -14z m2039 -359 c0 -140 4 -245 11 -264 16
-47 45 -52 305 -52 l234 0 0 -1445 c0 -1432 0 -1445 -20 -1465 -20 -20 -33
-20 -1275 -20 -1242 0 -1255 0 -1275 20 -20 20 -20 33 -20 1720 0 1687 0 1700
20 1720 20 20 33 20 1020 20 l1000 0 0 -234z m300 -21 l155 -155 -158 0 -157
0 0 155 c0 85 1 155 3 155 1 0 72 -70 157 -155z"/>
<path d="M2837 3316 c-92 -39 -170 -105 -208 -178 -35 -69 -15 -118 49 -118
26 0 38 9 72 55 98 133 233 169 365 97 96 -53 145 -151 145 -294 l0 -78 -317
0 c-193 0 -333 -4 -356 -11 -21 -6 -56 -26 -77 -45 -70 -64 -71 -70 -68 -511
l3 -391 30 -43 c17 -23 50 -53 74 -66 44 -23 45 -23 432 -23 216 0 399 4 412
9 40 16 99 73 118 116 17 36 19 74 19 411 0 254 -4 382 -12 405 -16 50 -45 87
-88 114 l-38 24 -4 128 c-3 120 -6 132 -35 194 -39 80 -120 160 -200 197 -48
22 -75 27 -158 29 -88 3 -107 1 -158 -21z m533 -676 c19 -19 20 -33 20 -388 0
-362 0 -369 -21 -388 -20 -18 -43 -19 -379 -22 l-358 -3 -29 25 -28 24 0 367
0 367 24 19 c22 18 44 19 387 19 351 0 365 -1 384 -20z"/>
<path d="M2928 2484 c-31 -17 -58 -61 -58 -97 0 -13 11 -41 25 -61 24 -35 25
-44 25 -176 0 -132 1 -140 22 -154 31 -22 64 -20 88 4 18 18 20 33 20 156 0
122 2 139 21 165 71 100 -36 221 -143 163z"/>
<path d="M1091 3114 c-26 -33 -26 -55 -3 -85 37 -45 122 -16 122 41 0 31 -39
70 -70 70 -19 0 -36 -9 -49 -26z"/>
<path d="M1299 2369 c-28 -28 -22 -76 12 -102 43 -32 99 -2 99 54 0 60 -69 90
-111 48z"/>
<path d="M720 2253 c-26 -34 -20 -66 20 -107 l29 -30 -34 -38 c-41 -45 -44
-70 -10 -103 33 -34 58 -31 103 10 l39 34 29 -30 c34 -36 64 -45 96 -28 49 25
51 69 7 122 l-32 38 32 33 c36 37 40 77 11 106 -28 28 -64 25 -104 -11 l-36
-31 -37 31 c-47 39 -84 40 -113 4z"/>
</g>
</svg>
